<svg xmlns="http://www.w3.org/2000/svg" width="1024" height="1024" viewBox="0 0 1024 1024" fill="none"><metadata><rdf:RDF xmlns:rdf="http://www.w3.org/1999/02/22-rdf-syntax-ns#" xmlns:dc="http://purl.org/dc/elements/1.1/"><rdf:Description><dc:creator>RealFaviconGenerator</dc:creator><dc:source>https://realfavicongenerator.net</dc:source></rdf:Description></rdf:RDF></metadata><g clip-path="url(#clip0_36_213)">
<mask id="mask0_36_213" style="mask-type:luminance" maskUnits="userSpaceOnUse" x="0" y="0" width="1024" height="1024">
<path d="M1024 0H0V1024H1024V0Z" fill="white"></path>
</mask>
<g mask="url(#mask0_36_213)">
<mask id="mask1_36_213" style="mask-type:luminance" maskUnits="userSpaceOnUse" x="0" y="0" width="1024" height="1024">
<path d="M1024 0H0V1024H1024V0Z" fill="white"></path>
</mask>
<g mask="url(#mask1_36_213)">
<path d="M945.76 90.976C943.456 82.144 936.448 75.424 927.68 73.504L927.52 73.472C926.048 73.152 924.352 72.96 922.624 72.96C915.008 72.96 908.192 76.448 903.744 81.952L903.712 81.984C849.376 146.144 778.176 194.464 696.928 220.224L693.76 221.088C639.584 238.752 576.576 251.36 511.456 256.384L508.64 256.544C437.248 259.2 370.24 275.104 309.088 301.888L312.608 300.512C207.008 357.728 136.544 467.712 136.544 594.144C136.544 596.128 136.576 598.112 136.608 600.096V599.808C136.896 609.504 137.568 619.072 138.656 628.608C143.584 666.944 154.144 701.728 169.568 733.728L168.672 731.68C119.424 795.104 76.896 867.52 44.32 945.12L41.984 951.424C40.768 954.208 40.064 957.44 40.064 960.864C40.064 974.112 50.816 984.864 64.064 984.864C73.92 984.864 82.368 978.944 86.08 970.464L86.144 970.304C116.992 896.48 153.088 832.896 195.744 774.368L193.856 777.088C230.24 833.248 280.544 877.568 340 905.76L342.144 906.688C387.616 927.456 440.8 939.584 496.8 939.584C497.664 939.584 498.496 939.584 499.328 939.584H499.2C559.648 939.296 617.152 927.04 669.568 904.992L666.624 906.08C835.008 829.76 954.688 672.288 976.32 484.96L976.544 482.496C981.248 446.336 983.936 404.544 983.936 362.112C983.936 265.536 969.984 172.192 944.032 84.032L945.76 90.976ZM928.992 475.36C909.664 648.064 801.28 791.616 651.424 860.32L648.416 861.536C605.728 880.512 555.904 891.584 503.52 891.584C452.352 891.584 403.648 881.056 359.488 862.016L361.856 862.912C303.936 835.616 257.216 792.576 226.112 739.264L225.344 737.824C331.488 615.84 469.504 555.072 666.976 535.84C679.136 534.56 688.544 524.384 688.544 511.968C688.544 498.72 677.792 487.968 664.544 487.968C663.776 487.968 663.008 488 662.24 488.064H662.336C481.888 494.752 320.544 571.2 203.36 691.04L203.232 691.168C195.424 671.424 189.44 648.416 186.4 624.512L186.24 623.072C185.28 614.88 184.704 606.688 184.48 598.496C184.448 596.928 184.416 595.04 184.416 593.184C184.416 485.728 244.224 392.256 332.352 344.224L333.824 343.488C386.624 320.832 447.904 306.624 512.224 304.288L513.12 304.256C585.024 298.72 651.68 285.312 715.136 264.832L708.992 266.56C787.328 240.96 854.496 199.936 909.92 146.752L909.728 146.912C926.464 211.552 936.064 285.728 936.064 362.176C936.064 402.08 933.44 441.376 928.384 479.872L928.864 475.328L928.992 475.36Z" fill="#627254"></path>
<path fill-rule="evenodd" clip-rule="evenodd" d="M415.121 668.302C378.13 573.823 318.609 479.416 226.956 417.183L255.044 375.817C357.791 445.584 422.437 549.844 461.679 650.073C500.921 750.301 515.597 848.582 516.993 909.426L467.007 910.574C465.736 855.251 452.112 762.782 415.121 668.302Z" fill="#627254"></path>
<path fill-rule="evenodd" clip-rule="evenodd" d="M600.152 528.613C641.541 621.249 705.432 712.755 799.908 770.613L773.796 813.253C667.884 748.391 598.41 647.284 554.501 549.009C510.593 450.736 491.315 353.252 487.061 292.541L536.939 289.047C540.807 344.249 558.761 435.975 600.152 528.613Z" fill="#627254"></path>
</g>
</g>
</g><defs>
<clipPath id="clip0_36_213">
<rect width="1024" height="1024" fill="white"></rect>
</clipPath>
</defs><style>@media (prefers-color-scheme: light) { :root { filter: none; } }
@media (prefers-color-scheme: dark) { :root { filter: contrast(0.3846153846153846) brightness(4.5); } }
</style></svg>